<?xml version="1.0" encoding="UTF-8" standalone="no"?>
<svg
   id="Layer_1"
   data-name="Layer 1"
   viewBox="0 0 1000 403.1893"
   version="1.1"
   sodipodi:docname="68e4ae4c8f0df-TRING-by-Pegadaian.svg"
   width="1000"
   height="403.1893"
   inkscape:version="1.4.3 (0d15f75, 2025-12-25)"
   xmlns:inkscape="http://www.inkscape.org/namespaces/inkscape"
   xmlns:sodipodi="http://sodipodi.sourceforge.net/DTD/sodipodi-0.dtd"
   xmlns="http://www.w3.org/2000/svg"
   xmlns:svg="http://www.w3.org/2000/svg">
  <sodipodi:namedview
     id="namedview13"
     pagecolor="#ffffff"
     bordercolor="#666666"
     borderopacity="1.0"
     inkscape:showpageshadow="2"
     inkscape:pageopacity="0.0"
     inkscape:pagecheckerboard="0"
     inkscape:deskcolor="#d1d1d1"
     inkscape:zoom="1"
     inkscape:cx="499.5"
     inkscape:cy="202"
     inkscape:window-width="1920"
     inkscape:window-height="1094"
     inkscape:window-x="-11"
     inkscape:window-y="-11"
     inkscape:window-maximized="1"
     inkscape:current-layer="Layer_1" />
  <defs
     id="defs1">
    <style
       id="style1">
      .cls-1 {
        fill: #72bf43;
      }

      .cls-1, .cls-2, .cls-3, .cls-4, .cls-5, .cls-6 {
        stroke-width: 0px;
      }

      .cls-2 {
        fill: #f8c61c;
      }

      .cls-3 {
        fill: #01ab4e;
      }

      .cls-4 {
        fill-rule: evenodd;
      }

      .cls-4, .cls-5 {
        fill: #054a3b;
      }

      .cls-6 {
        fill: #00ab4f;
      }
    </style>
  </defs>
  <path
     class="cls-3"
     d="m 695.12868,208.2452 c 2.14426,-1.70852 3.92159,-3.06158 5.63012,-4.50638 30.60441,-25.92603 62.48163,-50.17794 95.7119,-72.65253 10.83596,-7.32717 21.66045,-14.70021 32.73721,-21.67191 6.74238,-4.24266 14.04662,-7.41891 22.09619,-8.55411 11.90235,-1.662657 22.06178,5.03385 25.36417,16.70688 2.74052,9.71223 1.19253,19.27539 -0.9632,28.75829 -4.97651,21.86685 -15.41114,41.37158 -26.7287,60.45204 -10.34289,17.4522 -22.54338,33.48254 -36.78493,47.94195 -18.83966,19.12633 -40.25931,34.78974 -63.90349,47.46036 -21.01832,11.27169 -43.33237,18.87406 -66.72428,23.39191 -12.95729,2.51119 -25.84577,2.51119 -38.61959,-0.87147 -7.06344,-1.86906 -12.93435,-5.28611 -14.52821,-13.32421 -1.8576,-9.39117 4.87331,-18.02553 14.43648,-18.1058 5.44664,-0.0459 10.91622,0.25226 16.36287,0.6192 15.03274,0.99759 29.21696,-2.52266 43.2177,-7.52211 27.56577,-9.8269 50.54488,-26.92363 72.2856,-45.82063 24.95137,-21.69485 44.88036,-47.56355 61.3235,-76.14984 4.80452,-8.35917 8.39357,-17.25727 10.2053,-26.77457 0.2408,-1.26133 0.25226,-2.55706 0.41279,-4.27705 -5.36638,1.05493 -9.86129,3.17625 -13.69114,6.35251 -9.83837,8.1413 -19.33273,16.70687 -29.26283,24.73351 -22.06178,17.84206 -44.32996,35.4204 -66.47201,53.17073 -9.78103,7.84317 -20.47939,13.90901 -32.25562,18.32366 -22.61218,8.47384 -38.64252,-7.70557 -41.46331,-24.95137 -1.83466,-11.17996 0.0229,-22.22232 2.84372,-33.03534 4.79305,-18.40393 13.89755,-34.77827 24.67618,-50.24675 19.12633,-27.43963 43.5961,-48.939547 72.95066,-64.958417 14.04661,-7.6597 28.62069,-13.87461 44.4905,-16.489 18.90846,-3.10746 37.04866,-1.08933 53.34273,9.76956 7.84317,5.22878 12.99169,12.64769 13.90902,22.31405 0.28666,2.95839 0.0803,6.19198 -0.80267,9.01277 -2.83225,8.98983 -12.00555,10.91622 -19.60792,4.36878 -3.22213,-2.77492 -6.27225,-5.77918 -9.70077,-8.25597 -9.86129,-7.10931 -20.49085,-6.77677 -31.83135,-3.74959 -27.46256,7.32718 -50.14354,22.554847 -70.58853,41.589447 -13.89755,12.94582 -25.67377,27.69189 -35.042,44.22677 -7.01758,12.37248 -11.11116,25.78843 -12.99169,39.86945 -0.0917,0.72239 -0.0115,1.46772 -0.0115,2.83225 z"
     id="path1" />
  <path
     class="cls-3"
     d="m 554.14655,257.71222 c 3.37118,-5.69891 6.84557,-11.35196 10.11356,-17.11967 14.91808,-26.2815 29.44629,-52.79234 44.7657,-78.8445 14.75754,-25.10044 30.43242,-49.66195 45.45369,-74.613317 4.88478,-8.11837 11.05383,-14.25302 20.30739,-16.90181 8.02664,-2.29332 15.36528,3.10746 15.54874,11.52396 0.1376,6.26078 -1.52506,12.16609 -4.62104,17.50953 -25.91457,44.742767 -51.78328,89.519927 -78.01891,134.079227 -7.46477,12.67062 -15.61754,25.00871 -24.35511,36.84227 -8.94397,12.12022 -21.51139,19.14926 -36.6244,20.55965 -13.49621,1.24986 -25.0775,-4.46051 -27.76069,-17.71593 -0.97467,-4.81598 -0.35547,-9.9989 -0.0688,-14.99835 1.02053,-17.70446 4.91918,-34.96173 8.49677,-52.2534 3.49732,-16.95914 7.61383,-33.78067 11.07675,-50.75128 1.52507,-7.46477 2.1328,-15.11301 3.00426,-22.69244 0.1376,-1.14667 0.2408,-3.08453 -0.8944,-3.60052 -1.21546,-0.56187 -2.84372,0.84853 -3.56612,1.80026 -4.27705,5.65304 -8.59996,11.29462 -12.44128,17.23433 -22.76125,35.19107 -45.3505,70.4968 -68.11175,105.68787 -12.03995,18.59887 -24.17164,37.15186 -36.57853,55.50993 -4.00185,5.91677 -9.26503,10.77862 -16.84447,12.10875 -7.3157,1.28426 -12.52155,-2.98132 -12.51008,-10.34289 0.0115,-8.64584 4.08211,-15.95008 7.85463,-23.31165 16.05328,-31.33828 35.30574,-60.7387 54.283,-90.33406 14.32181,-22.33698 29.27429,-44.20383 45.84356,-64.92402 7.22397,-9.0357 14.10395,-18.40393 23.82765,-25.07751 8.15276,-5.59571 16.7642,-10.434627 26.63696,-11.856487 12.67062,-1.83466 21.93565,4.25412 25.84577,16.466067 1.04346,3.26799 1.62826,6.84558 1.62826,10.2741 0.0229,17.53247 -2.17866,34.82413 -6.00851,51.92087 -5.38931,24.03404 -10.81302,48.05662 -16.13354,72.1136 -0.81413,3.65785 -1.06639,7.4533 -1.58239,11.17995 -0.0115,0.56187 0.73386,1.0664 1.42186,0.52747 z"
     id="path2" />
  <path
     class="cls-3"
     d="m 129.29667,132.41642 c -11.52395,2.43093 -21.93565,4.72425 -32.393207,6.82264 -24.68764,4.94212 -49.375279,9.87277 -74.09732,14.60848 -3.56612,0.688 -7.476238,0.9288 -10.996492,0.22933 -12.10875392,-2.38505 -14.0580799,-12.62475 -9.6663639,-21.56871 2.832256,-5.77918 8.2330359,-8.39357 14.0810139,-9.71223 16.374339,-3.69226 32.817477,-7.08638 49.237682,-10.56076 30.61589,-6.47865 61.300567,-12.613287 91.824717,-19.481797 32.95508,-7.4189 65.74962,-15.56021 98.6359,-23.32311 7.6253,-1.80026 15.25061,-3.81839 22.97911,-4.96505 11.67303,-1.71999 15.04421,2.22453 15.59461,13.11782 0.19493,3.95598 -1.1696,8.15277 -2.51119,11.99409 -2.04106,5.84797 -6.39838,9.41409 -12.56742,10.755687 -18.0026,3.89865 -35.9708,8.0381 -54.0078,11.76476 -15.15887,3.13038 -30.39802,5.85944 -45.63716,8.6229 -2.62586,0.47013 -4.00185,1.67412 -5.20585,4.03625 -18.56446,36.57853 -37.24359,73.09972 -55.89979,109.63239 -18.690587,36.61293 -37.404117,73.21439 -56.083247,109.83878 -6.44424,12.62476 -12.705021,25.34124 -19.309797,37.8972 -4.322917,8.22156 -10.102095,15.11301 -19.653793,17.5554 -11.558356,2.95838 -20.0092579,-5.04532 -18.5873959,-16.92474 0.963196,-8.02664 4.334383,-15.04421 7.8202369,-22.05032 17.486601,-35.12227 34.927335,-70.27893 52.723539,-105.24067 18.89699,-37.12893 38.172387,-74.06292 57.298707,-111.06572 1.93786,-3.74958 3.97892,-7.44183 6.39838,-11.97115 z"
     id="path3" />
  <path
     class="cls-3"
     d="m 228.62057,284.95692 c 6.23784,4.12798 12.09729,8.0381 17.99113,11.90235 10.30849,6.75384 20.66286,13.43888 30.93695,20.25006 6.55891,4.34585 9.6549,12.76235 7.47624,19.75699 -2.32773,7.46477 -8.88663,12.00556 -17.1426,12.12022 -5.30905,0.0688 -10.15943,-1.31866 -14.57408,-4.15091 -18.381,-11.79916 -36.33773,-24.20605 -52.64327,-38.81453 -4.96505,-4.44905 -9.4141,-9.43703 -12.10876,-15.6978 -3.35972,-7.80877 -1.71999,-15.31941 5.49252,-19.83726 11.35195,-7.10931 23.03644,-13.70262 34.72093,-20.27299 25.05458,-14.08102 49.40968,-29.21696 72.27413,-46.64623 6.00851,-4.58665 11.47809,-9.84983 14.50528,-17.02793 1.57093,-3.70372 3.54319,-7.75144 0.5504,-11.44369 -3.03866,-3.76106 -7.73997,-3.22213 -11.61569,-2.15573 -7.85464,2.15573 -15.80101,4.46052 -23.17405,7.8661 -19.56206,9.04717 -36.77346,21.74072 -52.95286,35.85614 -26.68284,23.28871 -48.18276,50.71687 -65.68082,81.45889 -12.63622,22.19938 -24.12578,44.92623 -34.20494,68.39841 -3.41706,7.9693 -9.32237,13.40448 -18.8282,13.28982 -7.00611,-0.0803 -12.693547,-5.13705 -12.223417,-12.12022 0.45867,-6.67358 1.47919,-13.46182 3.439987,-19.83726 6.71944,-21.76365 16.99353,-41.95638 28.36842,-61.61017 12.87702,-22.24525 27.04977,-43.5961 44.2153,-62.8027 25.05458,-28.04736 53.06754,-52.4942 86.96288,-69.5336 14.20715,-7.14371 29.43482,-10.8589 45.12116,-12.59036 10.28556,-1.13519 20.26153,0.97467 29.64122,5.27465 10.11357,4.64398 17.03941,18.09433 16.19088,30.37509 -1.08933,15.85834 -7.28131,29.38895 -17.91087,41.16517 -22.57778,25.03164 -50.12061,42.94251 -80.62183,56.64512 -7.35011,3.30239 -14.90661,6.14612 -22.35992,9.21917 -0.47013,0.19493 -0.90586,0.4816 -1.84612,0.9976 z"
     id="path4" />
  <path
     class="cls-3"
     d="m 887.0685,211.34119 c -0.11467,-8.25597 3.54318,-15.45701 6.5245,-22.80711 17.01647,-41.95638 34.09028,-83.87835 51.11821,-125.823257 5.40078,-13.31275 10.57223,-26.71724 16.16794,-39.94972 3.8987,-9.23063 9.4026,-17.2916699 19.1837,-21.3393899 10.5493,-4.36878 20.85785,2.17866 19.8716,12.7508899 -0.3669,3.88719 -0.9288,7.87757 -2.236,11.52396 -3.4514,9.63196 -7.0749,19.20659 -11.1111,28.59776 -17.1656,39.89238 -34.5031,79.715957 -51.7833,119.562477 -4.89625,11.28316 -9.76956,22.57778 -14.68874,33.86094 -3.42853,7.8661 -9.0701,13.55355 -17.09674,16.6954 -7.8661,3.08453 -15.26208,-1.68559 -15.81247,-10.12502 -0.0688,-0.98613 -0.0917,-1.9608 -0.1376,-2.94693 z"
     id="path5" />
  <path
     class="cls-3"
     d="m 321.61489,321.24878 c 0.0459,-8.12984 3.89865,-16.28261 7.46477,-24.44684 21.27058,-48.74462 42.6673,-97.42044 64.02962,-146.13065 1.6168,-3.69226 3.27946,-7.36157 4.81599,-11.08823 3.15332,-7.63677 8.47383,-13.12928 16.05327,-16.43167 8.04957,-3.50879 15.98447,0.98613 15.97301,9.74663 0,5.32051 -0.88293,10.99649 -2.86666,15.91567 -12.40689,30.83376 -25.27244,61.48404 -37.89719,92.22606 -9.5173,23.18551 -18.8626,46.43982 -28.3799,69.62534 -3.42852,8.3477 -7.56797,16.27114 -15.5258,21.37378 -3.78399,2.41946 -7.87757,3.63492 -12.42982,3.25652 -7.14371,-0.58479 -11.73036,-5.79064 -11.24876,-14.04661 z"
     id="path6" />
  <path
     class="cls-3"
     d="m 897.06739,252.00184 c -0.19493,8.18717 -3.66932,15.37674 -6.98317,22.57778 -3.73812,8.09544 -8.6229,15.38821 -15.62901,21.11006 -5.74478,4.68985 -12.22342,7.12077 -19.67673,6.28371 -5.32051,-0.59627 -8.68023,-5.29758 -8.08397,-10.6869 0.64214,-5.85944 2.77493,-11.15702 5.80212,-16.145 7.1437,-11.76476 15.54874,-22.41725 27.50843,-29.67563 2.61439,-1.59386 5.69891,-2.94692 8.6917,-3.26798 5.54984,-0.59627 8.19863,2.24746 8.37063,7.84317 0.0229,0.6536 0,1.30719 0,1.96079 z"
     id="path7" />
  <path
     class="cls-5"
     d="m 631.77559,379.0979 c 0.0115,1.18106 -0.0459,2.37359 -0.0459,3.56612 0,-1.18107 0.0573,-2.38506 0.0573,-3.56612 0,-0.4472 0.0115,-0.8944 0.0229,-1.35306 -0.0229,0.44719 -0.0344,0.90586 -0.0344,1.35306 z m 0.0344,-3.84132 v 2.33919 c 0.0229,-0.43573 0.0344,-0.88293 0.0344,-1.33013 0,-0.344 -0.0115,-0.67653 -0.0344,-1.00906 z m -0.0344,3.84132 c 0.0115,1.18106 -0.0459,2.37359 -0.0459,3.56612 0,-1.18107 0.0573,-2.38506 0.0573,-3.56612 0,-0.4472 0.0115,-0.8944 0.0229,-1.35306 -0.0229,0.44719 -0.0344,0.90586 -0.0344,1.35306 z m 0.0344,-3.84132 v 2.33919 c 0.0229,-0.43573 0.0344,-0.88293 0.0344,-1.33013 0,-0.344 -0.0115,-0.67653 -0.0344,-1.00906 z m -0.0344,3.84132 c 0.0115,1.18106 -0.0459,2.37359 -0.0459,3.56612 0,-1.18107 0.0573,-2.38506 0.0573,-3.56612 0,-0.4472 0.0115,-0.8944 0.0229,-1.35306 -0.0229,0.44719 -0.0344,0.90586 -0.0344,1.35306 z m 0.0344,-3.84132 v 2.33919 c 0.0229,-0.43573 0.0344,-0.88293 0.0344,-1.33013 0,-0.344 -0.0115,-0.67653 -0.0344,-1.00906 z m 0,0 v 2.33919 c 0.0229,-0.43573 0.0344,-0.88293 0.0344,-1.33013 0,-0.344 -0.0115,-0.67653 -0.0344,-1.00906 z m -0.0803,7.40744 c 0,-1.18107 0.0573,-2.38506 0.0573,-3.56612 0,-0.4472 0.0115,-0.8944 0.0229,-1.35306 -0.0229,0.44719 -0.0344,0.90586 -0.0344,1.35306 0.0115,1.18106 -0.0459,2.37359 -0.0459,3.56612 z m 0.0803,-7.40744 v 2.33919 c 0.0229,-0.43573 0.0344,-0.88293 0.0344,-1.33013 0,-0.344 -0.0115,-0.67653 -0.0344,-1.00906 z m -0.0344,3.84132 c 0.0115,1.18106 -0.0459,2.37359 -0.0459,3.56612 0,-1.18107 0.0573,-2.38506 0.0573,-3.56612 0,-0.4472 0.0115,-0.8944 0.0229,-1.35306 -0.0229,0.44719 -0.0344,0.90586 -0.0344,1.35306 z m 0.0344,-3.84132 v 2.33919 c 0.0229,-0.43573 0.0344,-0.88293 0.0344,-1.33013 0,-0.344 -0.0115,-0.67653 -0.0344,-1.00906 z m -0.0344,3.84132 c 0.0115,1.18106 -0.0459,2.37359 -0.0459,3.56612 0,-1.18107 0.0573,-2.38506 0.0573,-3.56612 0,-0.4472 0.0115,-0.8944 0.0229,-1.35306 -0.0229,0.44719 -0.0344,0.90586 -0.0344,1.35306 z m 0.0344,-3.84132 v 2.33919 c 0.0229,-0.43573 0.0344,-0.88293 0.0344,-1.33013 0,-0.344 -0.0115,-0.67653 -0.0344,-1.00906 z m -0.0344,3.84132 c 0.0115,1.18106 -0.0459,2.37359 -0.0459,3.56612 0,-1.18107 0.0573,-2.38506 0.0573,-3.56612 0,-0.4472 0.0115,-0.8944 0.0229,-1.35306 -0.0229,0.44719 -0.0344,0.90586 -0.0344,1.35306 z"
     id="path8" />
  <path
     class="cls-5"
     d="m 646.49873,372.27526 c -0.99759,-5.77918 -5.06825,-8.58851 -10.70982,-6.89145 -1.21547,0.36694 -2.39653,0.81414 -3.85279,1.31867 -0.0344,-0.33254 -0.0803,-0.6536 -0.12613,-0.9632 v -9.32236 h -5.69891 v 16.05327 c 0,1.50213 0,2.99279 0.0115,4.48345 -0.0115,4.10505 0,8.18717 0.0115,12.28075 0.0115,0.4472 0.21786,0.9976 0.52746,1.376 0.0688,0.0917 0.14907,0.172 0.22934,0.2408 1.35306,1.10079 3.07305,1.74292 4.91918,1.98372 4.79305,0.64213 10.40023,-1.47919 12.51008,-5.54984 2.46533,-4.70132 3.08453,-9.70077 2.17866,-15.00981 z m -6.22637,11.79915 c -0.45867,2.92399 -3.76106,4.44905 -6.68505,3.49732 -0.76826,-0.25226 -1.61679,-1.42186 -1.71999,-2.25892 -0.0229,-0.18347 -0.0344,-0.35547 -0.0573,-0.53893 -0.0573,-0.69947 -0.0803,-1.4104 -0.0803,-2.10986 0,-1.19253 0.0573,-2.38506 0.0459,-3.56612 0,-0.4472 0.0115,-0.90587 0.0344,-1.35306 v -5.13705 c 0.4472,-1.74293 2.07546,-2.35066 4.07065,-2.66026 2.78639,-0.42426 4.57518,0.76826 4.67838,3.57759 0.14907,3.50878 0.26373,7.09784 -0.28666,10.54929 z"
     id="path9" />
  <path
     class="cls-5"
     d="m 631.80999,377.74484 c -0.0115,0.45866 -0.0229,0.90586 -0.0229,1.35306 0,1.18106 -0.0573,2.38505 -0.0573,3.56612 0,-1.19253 0.0573,-2.38506 0.0459,-3.56612 0,-0.4472 0.0115,-0.90587 0.0344,-1.35306 z"
     id="path10" />
  <g
     id="g12"
     transform="matrix(1.1466624,0,0,1.1466624,-51.05038,-350.55776)">
    <ellipse
       class="cls-6"
       cx="423.60001"
       cy="346.07001"
       rx="41.25"
       ry="24.52"
       transform="rotate(-74.95,423.59524,346.06383)"
       id="ellipse10" />
    <ellipse
       class="cls-1"
       cx="438.17999"
       cy="348.60999"
       rx="45.18"
       ry="22.610001"
       transform="rotate(-54.76,438.20089,348.61403)"
       id="ellipse11" />
    <ellipse
       class="cls-2"
       cx="447.62"
       cy="358.51999"
       rx="43.439999"
       ry="20.700001"
       transform="rotate(-38.05,447.55552,358.49426)"
       id="ellipse12" />
  </g>
  <path
     class="cls-4"
     d="m 700.346,357.43744 h -11.63863 c -0.37839,0 -0.68799,0.32107 -0.68799,0.688 v 33.84947 c 0,0.40134 0.32106,0.688 0.68799,0.688 h 5.13705 c 0.3784,0 0.688,-0.29813 0.688,-0.688 v -12.14315 h 5.19438 c 7.4877,0 12.32662,-4.79305 12.32662,-12.20049 0,-6.46717 -4.26558,-10.20529 -11.71889,-10.20529 v 0 z m -5.80211,5.43518 h 5.11411 c 4.02478,0 5.75624,1.57093 5.75624,5.25172 0,4.15092 -2.07545,6.28371 -6.18051,6.28371 h -4.68984 z m 30.00815,2.90106 c -6.70798,0 -10.57223,4.89625 -10.57223,13.45035 0,9.29943 3.86425,14.03515 11.53543,14.03515 3.30238,0 6.31811,-1.00907 7.85463,-1.892 0.2408,-0.1376 0.3784,-0.37839 0.344,-0.66506 l -0.32106,-4.23118 c -0.0229,-0.2408 -0.16054,-0.42427 -0.344,-0.56187 -0.21787,-0.1032 -0.45867,-0.1032 -0.66507,0 -2.17866,1.1696 -4.31145,1.75439 -6.36397,1.75439 -4.20825,0 -5.41225,-3.48585 -5.59572,-6.70797 h 13.02609 c 0.40133,0 0.688,-0.32107 0.688,-0.688 v -2.02959 c 0,-8.2789 -3.22212,-12.46422 -9.5861,-12.46422 z m -0.0803,5.19438 c 2.17866,0 3.35972,1.78879 3.48586,5.29758 h -7.48771 c 0.16053,-2.57999 1.24986,-5.29758 3.99039,-5.29758 v 0 z m 33.86094,-4.71278 h -4.55225 c -0.3784,0 -0.66506,0.26373 -0.68799,0.60773 l -0.0573,0.4816 c -1.30719,-0.84853 -2.95839,-1.57093 -5.19438,-1.57093 -7.37304,0 -9.96449,7.53357 -9.96449,13.97781 0,8.43944 3.43998,13.31275 9.48289,13.31275 2.05253,0 3.88719,-0.64213 5.48105,-1.83466 v 0 c 0,4.47199 -1.35306,6.36398 -4.50638,6.36398 -2.53413,0 -5.53838,-1.00906 -7.06344,-1.97226 -0.21787,-0.1032 -0.4472,-0.1376 -0.66507,-0.0229 -0.21786,0.0803 -0.344,0.26373 -0.40133,0.50453 l -0.80266,4.36878 c -0.0573,0.29814 0.1032,0.60773 0.3784,0.74533 1.78879,0.9632 5.29758,1.97226 8.7949,1.97226 9.34529,0 10.44609,-6.66211 10.44609,-11.66155 v -24.58444 c 0,-0.40134 -0.32107,-0.688 -0.688,-0.688 z m -9.64343,21.38525 c -3.70372,0 -4.26558,-4.87331 -4.26558,-7.75144 0,-8.73756 3.32532,-8.73756 4.44905,-8.73756 1.33013,0 2.49972,0.60773 3.80692,1.54799 v 13.00315 c -0.90587,0.90587 -2.29333,1.94933 -3.99039,1.94933 v 0 z m 37.53026,-0.0803 c -0.18346,-0.13759 -0.40133,-0.16053 -0.5848,-0.0803 -0.52746,0.16053 -0.88293,0.2408 -1.14666,0.2408 -0.29813,0 -0.688,0 -0.688,-1.5136 v -9.1389 c 0,-7.16664 -1.62826,-11.29462 -10.06769,-11.29462 -2.29333,0 -5.61865,0.52746 -7.29277,1.00906 -0.32107,0.1032 -0.52747,0.40133 -0.4816,0.74533 l 0.42426,3.86426 c 0,0.21786 0.1376,0.40133 0.29813,0.50453 0.18347,0.1032 0.40134,0.1376 0.5848,0.0803 1.7544,-0.56186 4.02479,-0.90586 5.77918,-0.90586 3.24506,0 4.58665,1.1696 4.58665,4.04772 v 0.4816 c -1.1696,-0.21787 -2.25892,-0.32107 -3.46292,-0.32107 -6.66211,0 -10.33143,3.32532 -10.33143,9.3453 0,5.27465 3.06159,8.5197 7.99224,8.5197 2.49972,0 4.77011,-0.8256 6.76531,-2.45386 0.66506,1.70853 1.94932,2.45386 4.07065,2.45386 1.12373,0 2.55706,-0.2408 3.76105,-0.64213 0.29813,-0.1032 0.4816,-0.40133 0.4472,-0.7224 l -0.32107,-3.72665 c -0.0229,-0.21787 -0.1376,-0.40133 -0.32106,-0.50453 v 0 z m -8.61143,-7.30423 v 5.64157 c -1.04347,1.04347 -2.74053,1.9952 -4.39172,1.9952 -2.69466,0 -2.98132,-2.55706 -2.98132,-3.64639 0,-3.03865 1.43333,-4.34585 4.77011,-4.34585 0.98613,0 1.892,0.18347 2.61439,0.344 v 0 z m 32.33588,-22.81859 h -4.97652 c -0.3784,0 -0.688,0.32107 -0.688,0.688 v 8.8981 c -1.24986,-0.7224 -2.71759,-1.24986 -4.68985,-1.24986 -7.4533,0 -10.09062,7.53357 -10.09062,13.97781 0,8.39357 3.54318,13.39302 9.48289,13.39302 2.15573,0 4.07065,-0.66506 5.72185,-1.99519 l 0.0573,0.88293 c 0,0.3784 0.32107,0.64213 0.688,0.64213 h 4.50638 c 0.40133,0 0.688,-0.29813 0.688,-0.688 v -33.84947 c 0,-0.3784 -0.29813,-0.688 -0.688,-0.688 v 0 z m -5.61865,15.20475 v 13.18661 c -1.3072,1.28427 -2.61439,1.892 -4.02478,1.892 -2.71759,0 -4.26559,-2.85519 -4.26559,-7.83171 0,-5.83651 1.5136,-8.7605 4.50638,-8.7605 1.4104,0 2.66026,0.688 3.78399,1.5136 z m 33.70041,14.91807 c -0.16054,-0.13759 -0.3784,-0.16053 -0.5848,-0.0803 -0.50453,0.16053 -0.88293,0.2408 -1.14666,0.2408 -0.29814,0 -0.66507,0 -0.66507,-1.5136 v -9.1389 c 0,-7.16664 -1.65119,-11.29462 -10.06769,-11.29462 -2.31626,0 -5.64158,0.52746 -7.32718,1.00906 -0.32106,0.1032 -0.50453,0.40133 -0.48159,0.74533 l 0.42426,3.86426 c 0.0229,0.21786 0.1376,0.40133 0.29813,0.50453 0.18347,0.1032 0.40134,0.1376 0.5848,0.0803 1.75439,-0.56186 4.04772,-0.90586 5.77918,-0.90586 3.24505,0 4.58665,1.1696 4.58665,4.04772 v 0.4816 c -1.1696,-0.21787 -2.23599,-0.32107 -3.43999,-0.32107 -6.68504,0 -10.36583,3.32532 -10.36583,9.3453 0,5.27465 3.06159,8.5197 7.99224,8.5197 2.49972,0 4.77012,-0.8256 6.76531,-2.45386 0.66506,1.70853 1.94932,2.45386 4.07065,2.45386 1.12373,0 2.55706,-0.2408 3.76105,-0.64213 0.29814,-0.1032 0.50453,-0.40133 0.45867,-0.7224 l -0.32107,-3.72665 c -0.0229,-0.21787 -0.1376,-0.40133 -0.32106,-0.50453 v 0 z m -8.61144,-7.30423 v 5.64157 c -1.04346,1.04347 -2.71759,1.9952 -4.39171,1.9952 -2.69466,0 -2.98133,-2.55706 -2.98133,-3.64639 0,-3.03865 1.43333,-4.34585 4.79305,-4.34585 0.98613,0 1.86906,0.18347 2.57999,0.344 v 0 z m 16.24821,-23.43778 c -2.17866,0 -3.68079,1.46772 -3.68079,3.64638 0,2.17866 1.5136,3.72666 3.68079,3.72666 2.16719,0 3.64638,-1.46773 3.64638,-3.72666 0,-2.25892 -1.35306,-3.64638 -3.64638,-3.64638 z m 2.49972,9.43703 h -4.95358 c -0.40133,0 -0.688,0.29813 -0.688,0.688 v 25.03163 c 0,0.40134 0.29814,0.688 0.688,0.688 h 4.95358 c 0.3784,0 0.688,-0.29813 0.688,-0.688 v -25.03163 c 0,-0.40134 -0.32107,-0.688 -0.688,-0.688 z m 28.1047,21.30498 c -0.16054,-0.13759 -0.40134,-0.16053 -0.5848,-0.0803 -0.50453,0.16053 -0.88293,0.2408 -1.14666,0.2408 -0.29814,0 -0.66507,0 -0.66507,-1.5136 v -9.1389 c 0,-7.16664 -1.65119,-11.29462 -10.06769,-11.29462 -2.31626,0 -5.64158,0.52746 -7.32718,1.00906 -0.32106,0.1032 -0.52746,0.40133 -0.48159,0.74533 l 0.42426,3.86426 c 0.0229,0.21786 0.1376,0.40133 0.29813,0.50453 0.18347,0.1032 0.40134,0.1376 0.5848,0.0803 1.75439,-0.56186 4.04772,-0.90586 5.77918,-0.90586 3.24505,0 4.58665,1.1696 4.58665,4.04772 v 0.4816 c -1.14666,-0.21787 -2.23599,-0.32107 -3.43999,-0.32107 -6.68504,0 -10.36583,3.32532 -10.36583,9.3453 0,5.27465 3.06159,8.5197 7.99224,8.5197 2.49972,0 4.77012,-0.8256 6.76531,-2.45386 0.66506,1.70853 1.94932,2.45386 4.07065,2.45386 1.12373,0 2.55706,-0.2408 3.76105,-0.64213 0.29813,-0.1032 0.4816,-0.40133 0.4472,-0.7224 l -0.32106,-3.72665 c -0.0229,-0.21787 -0.1376,-0.40133 -0.32107,-0.50453 v 0 z m -8.59997,-7.30423 v 5.64157 c -1.04346,1.04347 -2.71759,1.9952 -4.39172,1.9952 -2.69465,0 -2.98132,-2.55706 -2.98132,-3.64639 0,-3.03865 1.43333,-4.34585 4.77012,-4.34585 0.98612,0 1.89199,0.18347 2.61439,0.344 v 0 z m 33.68894,-8.78344 c -0.64213,-3.72665 -3.22212,-5.69891 -7.40744,-5.69891 -2.90106,0 -5.35491,1.204 -7.10931,2.47679 l -0.0803,-1.35306 c -0.0229,-0.3784 -0.32107,-0.64213 -0.688,-0.64213 h -4.60958 c -0.3784,0 -0.688,0.29813 -0.688,0.688 v 25.03163 c 0,0.40134 0.32107,0.688 0.688,0.688 h 4.97651 c 0.40133,0 0.688,-0.29813 0.688,-0.688 v -18.18606 c 1.30719,-1.12373 3.16479,-2.33919 5.17145,-2.33919 2.00666,0 2.61439,0.76826 2.79785,1.91492 0.0803,0.4472 0.0803,1.38747 0.0803,1.9952 v 16.61513 c 0,0.40134 0.32106,0.688 0.688,0.688 h 4.95358 c 0.3784,0 0.688,-0.29813 0.688,-0.688 v -17.2802 c 0,-0.90586 0,-2.31625 -0.16054,-3.22212 z"
     id="path12" />
  <path
     class="cls-5"
     d="m 673.0669,365.38381 v 0.33254 l -1.77733,5.64158 -6.15757,19.59646 c -0.7912,2.56852 -1.67413,4.62104 -2.63733,6.18051 -0.40133,0.64213 -0.82559,1.21546 -1.28426,1.71999 -0.64213,0.7224 -1.34159,1.28426 -2.08692,1.69706 -1.28427,0.7224 -3.45146,1.99519 -7.82024,1.99519 -1.548,0 -3.16479,-0.29813 -4.81598,-0.89439 l 1.44479,-4.46052 c 0.97466,0.33253 1.93786,0.516 2.91252,0.516 0.8256,0 1.62826,0.0459 2.29333,-0.0917 0.4472,-0.1032 1.88052,0.2752 4.93065,-2.84372 0.48159,-0.49306 0.79119,-1.31866 1.19252,-2.25892 l -0.74533,-2.12133 -1.42186,-4.01332 -7.29277,-20.66285 v -0.33254 h 5.91678 l 1.92639,5.97412 2.84372,8.8637 c 0.5504,1.65119 0.97467,3.16478 1.29573,4.51785 0.0573,-0.2064 0.1032,-0.4128 0.14907,-0.60774 0.47013,-1.85759 0.81413,-3.15332 1.04346,-3.91011 l 4.34585,-14.84928 h 5.75625 z"
     id="path13" />
</svg>
